<?xml version="1.0" standalone="no"?>
<!DOCTYPE svg PUBLIC "-//W3C//DTD SVG 20010904//EN"
 "http://www.w3.org/TR/2001/REC-SVG-20010904/DTD/svg10.dtd">
<svg version="1.0" xmlns="http://www.w3.org/2000/svg"
 width="250.000000pt" height="276.000000pt" viewBox="0 0 250.000000 276.000000"
 preserveAspectRatio="xMidYMid meet">

<g transform="translate(0.000000,276.000000) scale(0.100000,-0.100000)"
fill="#000000" stroke="none">
<path d="M930 2230 c0 -20 7 -20 295 -20 288 0 295 0 295 20 0 20 -7 20 -295
20 -288 0 -295 0 -295 -20z"/>
<path d="M1000 2045 l0 -135 230 0 230 0 0 135 0 135 -230 0 -230 0 0 -135z"/>
<path d="M720 1410 l0 -480 500 0 500 0 0 480 0 480 -500 0 -500 0 0 -480z"/>
<path d="M2080 1375 c0 -288 0 -295 20 -295 20 0 20 7 20 295 0 288 0 295 -20
295 -20 0 -20 -7 -20 -295z"/>
<path d="M330 1365 c0 -288 0 -295 20 -295 20 0 20 7 20 295 0 288 0 295 -20
295 -20 0 -20 -7 -20 -295z"/>
<path d="M400 1370 l0 -230 130 0 130 0 0 230 0 230 -130 0 -130 0 0 -230z"/>
<path d="M1780 1370 l0 -230 135 0 135 0 0 230 0 230 -135 0 -135 0 0 -230z"/>
<path d="M1010 750 l0 -130 235 0 235 0 0 130 0 130 -235 0 -235 0 0 -130z"/>
<path d="M960 565 l0 -25 295 0 295 0 0 25 0 25 -295 0 -295 0 0 -25z"/>
</g>
</svg>
