<?xml version="1.0" standalone="no"?>
<!DOCTYPE svg PUBLIC "-//W3C//DTD SVG 20010904//EN"
 "http://www.w3.org/TR/2001/REC-SVG-20010904/DTD/svg10.dtd">
<svg version="1.0" xmlns="http://www.w3.org/2000/svg"
 width="345.000000pt" height="400.000000pt" viewBox="0 0 345.000000 400.000000"
 preserveAspectRatio="xMidYMid meet">

<g transform="translate(0.000000,400.000000) scale(0.100000,-0.100000)"
fill="#000000" stroke="none">
<path d="M1410 3390 c0 -20 7 -20 295 -20 288 0 295 0 295 20 0 20 -7 20 -295
20 -288 0 -295 0 -295 -20z"/>
<path d="M1480 3205 l0 -135 235 0 235 0 0 135 0 135 -235 0 -235 0 0 -135z"/>
<path d="M1190 2095 l0 -945 495 0 495 0 0 945 0 945 -495 0 -495 0 0 -945z"/>
<path d="M2540 2605 c0 -288 0 -295 20 -295 20 0 20 7 20 295 0 288 0 295 -20
295 -20 0 -20 -7 -20 -295z"/>
<path d="M780 2585 l0 -295 25 0 25 0 0 295 0 295 -25 0 -25 0 0 -295z"/>
<path d="M850 2595 l0 -235 130 0 130 0 0 235 0 235 -130 0 -130 0 0 -235z"/>
<path d="M2240 2595 l0 -235 135 0 135 0 0 235 0 235 -135 0 -135 0 0 -235z"/>
<path d="M2540 1595 l0 -295 25 0 25 0 0 295 0 295 -25 0 -25 0 0 -295z"/>
<path d="M790 1585 c0 -288 0 -295 20 -295 20 0 20 7 20 295 0 288 0 295 -20
295 -20 0 -20 -7 -20 -295z"/>
<path d="M860 1595 l0 -235 130 0 130 0 0 235 0 235 -130 0 -130 0 0 -235z"/>
<path d="M2250 1585 l0 -235 135 0 135 0 0 235 0 235 -135 0 -135 0 0 -235z"/>
<path d="M1480 970 l0 -130 235 0 235 0 0 130 0 130 -235 0 -235 0 0 -130z"/>
<path d="M1430 785 l0 -25 295 0 295 0 0 25 0 25 -295 0 -295 0 0 -25z"/>
</g>
</svg>
