<?xml version="1.0" standalone="no"?>
<!DOCTYPE svg PUBLIC "-//W3C//DTD SVG 20010904//EN"
 "http://www.w3.org/TR/2001/REC-SVG-20010904/DTD/svg10.dtd">
<svg version="1.0" xmlns="http://www.w3.org/2000/svg"
 width="352.000000pt" height="362.000000pt" viewBox="0 0 352.000000 362.000000"
 preserveAspectRatio="xMidYMid meet">

<g transform="translate(0.000000,362.000000) scale(0.100000,-0.100000)"
fill="#000000" stroke="none">
<path d="M1390 3020 c0 -20 7 -20 295 -20 288 0 295 0 295 20 0 20 -7 20 -295
20 -288 0 -295 0 -295 -20z"/>
<path d="M1460 2835 l0 -135 230 0 230 0 0 135 0 135 -230 0 -230 0 0 -135z"/>
<path d="M2594 2716 c-6 -16 287 -497 301 -492 6 2 9 10 9 19 -2 19 -286 486
-297 487 -4 0 -10 -6 -13 -14z"/>
<path d="M680 2523 c-74 -104 -149 -209 -167 -234 -27 -38 -31 -49 -20 -58 11
-9 48 37 181 224 148 208 176 255 147 255 -4 0 -68 -84 -141 -187z"/>
<path d="M1578 2649 c-92 -13 -237 -66 -317 -116 -484 -301 -553 -985 -140
-1379 112 -105 212 -162 366 -206 103 -29 303 -32 408 -4 98 25 258 105 333
166 133 109 248 290 293 465 30 115 31 298 1 418 -108 437 -515 719 -944 656z"/>
<path d="M2475 2566 c-55 -35 -99 -69 -97 -76 2 -10 214 -363 226 -377 2 -3
197 116 210 127 8 8 -219 391 -232 389 -4 0 -52 -29 -107 -63z"/>
<path d="M817 2588 c-108 -144 -236 -333 -230 -339 37 -33 196 -139 202 -134
8 4 236 321 254 352 4 7 -31 38 -92 82 -55 39 -102 71 -105 71 -3 0 -16 -15
-29 -32z"/>
<path d="M2526 1424 c-59 -107 -106 -197 -104 -199 11 -10 206 -115 215 -115
9 0 228 389 221 394 -16 12 -210 116 -216 116 -5 0 -57 -88 -116 -196z"/>
<path d="M690 1548 c-58 -22 -106 -42 -107 -42 -3 -2 155 -418 160 -422 3 -4
225 80 232 87 9 10 -151 414 -166 416 -7 1 -61 -16 -119 -39z"/>
<path d="M498 1535 c-5 -6 188 -524 201 -537 3 -4 11 -4 18 0 8 5 -20 88 -90
275 -92 240 -111 280 -129 262z"/>
<path d="M2790 1292 c-74 -136 -135 -251 -135 -257 0 -5 6 -10 14 -10 7 0 76
112 151 250 129 232 143 266 110 265 -3 -1 -66 -112 -140 -248z"/>
<path d="M1500 725 l0 -135 230 0 230 0 0 135 0 135 -230 0 -230 0 0 -135z"/>
<path d="M1440 540 c0 -20 7 -20 300 -20 293 0 300 0 300 20 0 20 -7 20 -300
20 -293 0 -300 0 -300 -20z"/>
</g>
</svg>
